<?xml version="1.0" standalone="no"?><!DOCTYPE svg PUBLIC "-//W3C//DTD SVG 1.1//EN" "http://www.w3.org/Graphics/SVG/1.1/DTD/svg11.dtd"><svg t="1599295473291" class="icon" viewBox="0 0 1083 1024" version="1.1" xmlns="http://www.w3.org/2000/svg" p-id="4139" xmlns:xlink="http://www.w3.org/1999/xlink" width="211.5234375" height="200"><defs><style type="text/css"></style></defs><path d="M467.115865 525.097194a281.971014 281.971014 0 1 0 446.811434-344.078703 281.971014 281.971014 0 1 0-446.811434 344.078703Z" fill="#E9EAEB" p-id="4140"></path><path d="M652.985507 390.307246v-222.608695H252.289855v222.608695H89.043478v296.811595h905.275363v-296.811595z" fill="#FFFFFF" p-id="4141"></path><path d="M667.826087 345.785507h-29.681159v-163.246377H267.130435v163.246377h-29.68116v-192.927536h430.376812zM460.057971 449.669565h89.043478v29.68116h-89.043478zM1009.15942 701.95942h-59.362319v-29.681159h29.68116v-267.130435h-74.202899v-29.681159h103.884058zM608.463768 523.872464h-29.681159v-148.405797h281.971014v29.681159H608.463768z" fill="#2A5082" p-id="4142"></path><path d="M920.115942 449.669565h-29.681159v-133.565217c0-25.228986-19.292754-44.521739-44.52174-44.521739h-118.724637v-29.68116h118.724637c41.553623 0 74.202899 32.649275 74.202899 74.202899v133.565217z" fill="#2A5082" p-id="4143"></path><path d="M776.162319 326.492754l-69.750725-69.750725 69.750725-71.234783 20.776811 22.26087-48.973913 48.973913 48.973913 47.489855zM178.086957 701.95942H74.202899v-326.492753h430.376811v148.405797h-29.681159v-118.724638H103.884058v267.130435h74.202899z" fill="#2A5082" p-id="4144"></path><path d="M222.608696 672.278261h163.246376v29.681159H222.608696zM920.115942 954.249275H415.536232v-400.695652h504.57971v400.695652z m-474.898551-29.681159h445.217392v-341.333333H445.217391v341.333333z" fill="#2A5082" p-id="4145"></path><path d="M771.710145 672.278261m-44.521739 0a44.521739 44.521739 0 1 0 89.043478 0 44.521739 44.521739 0 1 0-89.043478 0Z" fill="#A3D4FF" p-id="4146"></path><path d="M771.710145 731.64058c-32.649275 0-59.362319-26.713043-59.362319-59.362319s26.713043-59.362319 59.362319-59.362319 59.362319 26.713043 59.362319 59.362319-26.713043 59.362319-59.362319 59.362319z m0-89.043479c-16.324638 0-29.681159 13.356522-29.681159 29.68116s13.356522 29.681159 29.681159 29.681159 29.681159-13.356522 29.681159-29.681159-13.356522-29.681159-29.681159-29.68116z" fill="#2A5082" p-id="4147"></path><path d="M756.869565 776.162319l-51.942029 51.942029-111.304348-111.304348-163.246376 163.246377v59.362319h474.89855v-29.68116z" fill="#A3D4FF" p-id="4148"></path><path d="M920.115942 954.249275H415.536232v-80.13913l178.086956-178.086957 111.304348 111.304348 51.942029-51.942029 163.246377 146.921739v51.942029z m-474.898551-29.681159h445.217392v-8.904348l-133.565218-120.208696-31.165217 31.165218 41.553623 41.553623-20.776812 22.26087L593.623188 737.576812l-148.405797 148.405797v38.585507zM890.434783 479.350725h29.681159v29.681159h-29.681159zM356.173913 850.365217h-118.724638c-41.553623 0-74.202899-32.649275-74.202898-74.202898v-148.405797h29.681159v148.405797c0 25.228986 19.292754 44.521739 44.521739 44.521739h118.724638v29.681159z" fill="#2A5082" p-id="4149"></path><path d="M307.2 905.275362l-20.776812-22.260869 48.973913-47.489855-48.973913-48.973913 20.776812-22.26087 69.750725 71.234783zM163.246377 568.394203h29.681159v29.681159h-29.681159zM163.246377 509.031884h29.681159v29.681159h-29.681159zM163.246377 449.669565h29.681159v29.68116h-29.681159z" fill="#2A5082" p-id="4150"></path></svg>